<svg width="674" height="167" viewBox="0 0 674 167" fill="none" xmlns="http://www.w3.org/2000/svg">
<g clip-path="url(#clip0_812_167)" filter="url(#filter0_d_812_167)">
<path d="M58.7199 69.2L83.3099 44.62L107.91 69.22L122.21 54.91L83.3099 16L44.4099 54.9L58.7199 69.2Z" fill="#F3BA2F"/>
<path d="M19.9949 79.3071L34.2996 65.0024L48.6044 79.3071L34.2996 93.6119L19.9949 79.3071Z" fill="#F3BA2F"/>
<path d="M58.7199 89.41L83.3099 114L107.91 89.4L122.22 103.69L122.21 103.7L83.3099 142.61L44.4099 103.72L44.3899 103.7L58.7199 89.41Z" fill="#F3BA2F"/>
<path d="M117.991 79.3107L132.296 65.0059L146.601 79.3107L132.296 93.6154L117.991 79.3107Z" fill="#F3BA2F"/>
<path d="M97.82 79.3L83.31 64.78L72.58 75.51L71.34 76.74L68.8 79.28L68.78 79.3L68.8 79.33L83.31 93.83L97.82 79.31L97.83 79.3H97.82Z" fill="#F3BA2F"/>
<path d="M168.92 46.6799H200.04C207.76 46.6799 213.6 48.6799 217.56 52.6799C219.052 54.1575 220.228 55.9228 221.017 57.8687C221.806 59.8146 222.192 61.9006 222.15 63.9999V64.1899C222.177 65.9098 221.937 67.6234 221.44 69.2699C220.997 70.6874 220.354 72.0343 219.53 73.2699C218.762 74.4351 217.833 75.4855 216.77 76.3899C215.732 77.2837 214.594 78.0554 213.38 78.6899C216.881 79.9096 220.03 81.9698 222.55 84.6899C224.777 87.2233 225.89 90.7233 225.89 95.1899V95.3799C225.953 98.1695 225.346 100.934 224.12 103.44C222.932 105.749 221.19 107.728 219.05 109.2C216.631 110.822 213.937 111.991 211.1 112.65C207.729 113.449 204.274 113.835 200.81 113.8H168.92V46.6799ZM196.92 73.8199C199.612 73.9501 202.292 73.3707 204.69 72.1399C205.625 71.5936 206.389 70.7964 206.894 69.8385C207.4 68.8806 207.627 67.8003 207.55 66.7199V66.5299C207.599 65.5345 207.397 64.5426 206.962 63.646C206.527 62.7493 205.873 61.9769 205.06 61.3999C203.4 60.2199 201.003 59.6299 197.87 59.6299H183.31V73.8199H196.92ZM200.85 100.87C203.532 101.02 206.202 100.406 208.55 99.0999C209.464 98.5124 210.205 97.6904 210.694 96.7195C211.183 95.7487 211.402 94.6645 211.33 93.5799V93.3899C211.366 92.359 211.149 91.335 210.697 90.4075C210.246 89.4801 209.574 88.6774 208.74 88.0699C207.02 86.7366 204.24 86.0699 200.4 86.0699H183.31V100.87H200.85Z" fill="#F3BA2F"/>
<path d="M244.43 46.6799H259.2V113.82H244.43V46.6799Z" fill="#F3BA2F"/>
<path d="M281.55 46.6799H295.17L326.65 87.9999V46.6799H341.23V113.82H328.66L296.15 71.1399V113.82H281.55V46.6799Z" fill="#F3BA2F"/>
<path d="M385.95 46.2H399.55L428.32 113.82H412.9L406.76 98.76H378.37L372.23 113.82H357.17L385.95 46.2ZM401.49 85.72L392.55 63.9399L383.65 85.72H401.49Z" fill="#F3BA2F"/>
<path d="M444.29 46.6799H457.91L489.37 87.9999V46.6799H503.95V113.82H491.38L458.87 71.1399V113.82H444.29V46.6799Z" fill="#F3BA2F"/>
<path d="M557.11 115C552.403 115.04 547.736 114.129 543.39 112.32C539.298 110.631 535.586 108.139 532.473 104.993C529.359 101.847 526.907 98.1089 525.26 94C523.522 89.7021 522.643 85.1057 522.67 80.47V80.28C522.593 71.1422 526.109 62.3399 532.46 55.77C535.585 52.5607 539.327 50.0164 543.46 48.29C547.956 46.4276 552.784 45.4988 557.65 45.56C560.528 45.5385 563.402 45.7964 566.23 46.33C568.65 46.7876 571.016 47.4947 573.29 48.44C575.354 49.3086 577.316 50.4019 579.14 51.7C580.92 52.966 582.593 54.3775 584.14 55.92L574.75 66.76C572.35 64.5463 569.659 62.6722 566.75 61.19C563.892 59.8236 560.757 59.139 557.59 59.19C554.954 59.1618 552.343 59.6948 549.929 60.7534C547.515 61.812 545.354 63.3721 543.59 65.33C541.84 67.2828 540.47 69.5448 539.55 72C538.586 74.5945 538.102 77.3424 538.12 80.11V80.3C538.111 83.0636 538.595 85.8066 539.55 88.4C540.459 90.8639 541.815 93.1387 543.55 95.11C545.3 97.0922 547.456 98.6751 549.872 99.7517C552.287 100.828 554.906 101.373 557.55 101.35C560.917 101.456 564.259 100.731 567.28 99.24C570.156 97.6725 572.815 95.7361 575.19 93.48L584.59 102.98C582.93 104.781 581.135 106.453 579.22 107.98C577.338 109.468 575.296 110.739 573.13 111.77C570.822 112.856 568.391 113.659 565.89 114.16C563 114.739 560.058 115.021 557.11 115Z" fill="#F3BA2F"/>
<path d="M602.02 46.6799H652.55V59.8199H616.55V73.4399H648.25V86.5799H616.6V100.68H653.05V113.82H602.05L602.02 46.6799Z" fill="#F3BA2F"/>
</g>
<defs>
<filter id="filter0_d_812_167" x="0" y="0" width="673.04" height="166.61" filterUnits="userSpaceOnUse" color-interpolation-filters="sRGB">
<feFlood flood-opacity="0" result="BackgroundImageFix"/>
<feColorMatrix in="SourceAlpha" type="matrix" values="0 0 0 0 0 0 0 0 0 0 0 0 0 0 0 0 0 0 127 0" result="hardAlpha"/>
<feOffset dy="4"/>
<feGaussianBlur stdDeviation="10"/>
<feColorMatrix type="matrix" values="0 0 0 0 0 0 0 0 0 0 0 0 0 0 0 0 0 0 0.1 0"/>
<feBlend mode="normal" in2="BackgroundImageFix" result="effect1_dropShadow_812_167"/>
<feBlend mode="normal" in="SourceGraphic" in2="effect1_dropShadow_812_167" result="shape"/>
</filter>
<clipPath id="clip0_812_167">
<rect width="633.04" height="126.61" fill="white" transform="translate(20 16)"/>
</clipPath>
</defs>
</svg>
