<svg width="98" height="574" viewBox="0 0 98 574" fill="none" xmlns="http://www.w3.org/2000/svg">
<path d="M97.5 82.8727L97.5 84.8727L99.5 84.8727L99.5 82.8727L97.5 82.8727ZM27 82.8727L25 82.8727L25 84.8727L27 84.8727L27 82.8727ZM27 63.2727L27 61.2727L25 61.2727L25 63.2727L27 63.2727ZM65.9 63.2727L65.9 65.2727L66.547 61.3802L65.9 63.2727ZM27 49.9727L25 49.9727L25 51.4025L26.353 51.8651L27 49.9727ZM27 33.5727L26.3531 31.6802L25 32.1427L25 33.5727L27 33.5727ZM66.2 20.1727L66.8469 22.0651L66.2 18.1727L66.2 20.1727ZM27 20.1727L25 20.1727L25 22.1727L27 22.1727L27 20.1727ZM27 0.572658L27 -1.42734L25 -1.42734L25 0.572658L27 0.572658ZM97.5 0.572657L99.5 0.572657L99.5 -1.42734L97.5 -1.42734L97.5 0.572657ZM97.5 24.2727L98.221 26.1382L99.5 25.6439L99.5 24.2727L97.5 24.2727ZM51.7 41.9727L50.979 40.1071L46.0966 41.994L50.9933 43.8436L51.7 41.9727ZM97.5 59.2727L99.5 59.2727L99.5 57.8902L98.2067 57.4017L97.5 59.2727ZM97.5 80.8727L27 80.8727L27 84.8727L97.5 84.8727L97.5 80.8727ZM29 82.8727L29 63.2727L25 63.2727L25 82.8727L29 82.8727ZM27 65.2727L65.9 65.2727L65.9 61.2727L27 61.2727L27 65.2727ZM66.547 61.3802L27.647 48.0802L26.353 51.8651L65.253 65.1651L66.547 61.3802ZM29 49.9727L29 33.5727L25 33.5727L25 49.9727L29 49.9727ZM27.6469 35.4651L66.8469 22.0651L65.5531 18.2802L26.3531 31.6802L27.6469 35.4651ZM66.2 18.1727L27 18.1727L27 22.1727L66.2 22.1727L66.2 18.1727ZM29 20.1727L29 0.572658L25 0.572658L25 20.1727L29 20.1727ZM27 2.57266L97.5 2.57266L97.5 -1.42734L27 -1.42734L27 2.57266ZM95.5 0.572657L95.5 24.2727L99.5 24.2727L99.5 0.572657L95.5 0.572657ZM96.779 22.4071L50.979 40.1071L52.421 43.8382L98.221 26.1382L96.779 22.4071ZM50.9933 43.8436L96.7933 61.1436L98.2067 57.4017L52.4067 40.1017L50.9933 43.8436ZM95.5 59.2727L95.5 82.8727L99.5 82.8727L99.5 59.2727L95.5 59.2727ZM29.8 105.03L28.033 104.093L28.0273 104.104L29.8 105.03ZM39.8 94.6297L40.8094 96.3563L39.8 94.6297ZM70.3 94.6297L71.329 92.9147L71.3192 92.9088L71.3094 92.9031L70.3 94.6297ZM80.3 105.13L82.0727 104.204L82.0669 104.193L80.3 105.13ZM80.3 135.23L78.533 134.293L78.5273 134.304L80.3 135.23ZM70.3 145.73L69.2906 144.003L69.2808 144.009L69.271 144.015L70.3 145.73ZM39.8 145.73L40.8175 144.008L40.8094 144.003L39.8 145.73ZM29.8 135.23L31.5727 134.304L29.8 135.23ZM46.3 126.93L47.6406 125.445L47.6379 125.443L46.3 126.93ZM63.8 126.93L62.4621 125.443L62.4486 125.455L62.4354 125.468L63.8 126.93ZM46.3 113.43L44.9901 111.918L44.9901 111.918L46.3 113.43ZM28.3 120.13C28.3 114.816 29.4047 110.106 31.5727 105.956L28.0273 104.104C25.5286 108.887 24.3 114.244 24.3 120.13L28.3 120.13ZM31.5669 105.967C33.7246 101.898 36.7944 98.7035 40.8094 96.3563L38.7906 92.9031C34.1389 95.6225 30.5421 99.3615 28.0331 104.093L31.5669 105.967ZM40.8094 96.3563C44.7882 94.0302 49.5276 92.8297 55.1 92.8297L55.1 88.8297C48.9391 88.8297 43.4785 90.1625 38.7906 92.9031L40.8094 96.3563ZM55.1 92.8297C60.6012 92.8297 65.3085 94.0283 69.2906 96.3563L71.3094 92.9031C66.6249 90.1645 61.1988 88.8297 55.1 88.8297L55.1 92.8297ZM69.271 96.3447C73.297 98.7602 76.3729 101.993 78.5331 106.067L82.0669 104.193C79.5604 99.4661 75.9697 95.6991 71.329 92.9147L69.271 96.3447ZM78.5273 106.056C80.6953 110.206 81.8 114.916 81.8 120.23L85.8 120.23C85.8 114.344 84.5714 108.987 82.0727 104.204L78.5273 106.056ZM81.8 120.23C81.8 125.544 80.6952 130.216 78.5331 134.293L82.0669 136.167C84.5715 131.444 85.8 126.115 85.8 120.23L81.8 120.23ZM78.5273 134.304C76.3674 138.438 73.2979 141.66 69.2906 144.003L71.3094 147.456C75.9687 144.732 79.566 140.954 82.0727 136.156L78.5273 134.304ZM69.271 144.015C65.2922 146.402 60.592 147.63 55.1 147.63L55.1 151.63C61.208 151.63 66.6412 150.257 71.329 147.445L69.271 144.015ZM55.1 147.63C49.6087 147.63 44.8695 146.402 40.8175 144.008L38.7825 147.452C43.5305 150.257 48.9913 151.63 55.1 151.63L55.1 147.63ZM40.8094 144.003C36.8021 141.66 33.7327 138.438 31.5727 134.304L28.0273 136.156C30.534 140.954 34.1313 144.732 38.7906 147.456L40.8094 144.003ZM31.5727 134.304C29.4047 130.153 28.3 125.444 28.3 120.13L24.3 120.13C24.3 126.016 25.5286 131.373 28.0273 136.156L31.5727 134.304ZM41.3 120.13C41.3 123.42 42.5331 126.23 44.9621 128.416L47.6379 125.443C46.0669 124.029 45.3 122.306 45.3 120.13L41.3 120.13ZM44.9594 128.414C47.5095 130.717 50.9869 131.73 55.1 131.73L55.1 127.73C51.6131 127.73 49.2238 126.875 47.6406 125.445L44.9594 128.414ZM55.1 131.73C59.2081 131.73 62.671 130.719 65.1646 128.392L62.4354 125.468C60.929 126.874 58.5919 127.73 55.1 127.73L55.1 131.73ZM65.1379 128.416C67.555 126.241 68.8 123.469 68.8 120.23L64.8 120.23C64.8 122.324 64.045 124.018 62.4621 125.443L65.1379 128.416ZM68.8 120.23C68.8 116.99 67.555 114.218 65.1379 112.043L62.4621 115.016C64.045 116.441 64.8 118.136 64.8 120.23L68.8 120.23ZM65.1379 112.043C62.6436 109.798 59.1912 108.83 55.1 108.83L55.1 112.83C58.6088 112.83 60.9564 113.661 62.4621 115.016L65.1379 112.043ZM55.1 108.83C50.9691 108.83 47.4897 109.752 44.9901 111.918L47.6099 114.941C49.1103 113.641 51.4976 112.83 55.1 112.83L55.1 108.83ZM44.9901 111.918C42.5356 114.046 41.3 116.838 41.3 120.13L45.3 120.13C45.3 117.955 46.0644 116.281 47.6099 114.941L44.9901 111.918ZM77.1 209.704L75.7814 208.2L75.7756 208.205L75.7698 208.21L77.1 209.704ZM27 215.404L25 215.404L25 217.404L27 217.404L27 215.404ZM27 195.804L27 193.804L25 193.804L25 195.804L27 195.804ZM64.6 193.304L63.268 191.812L63.2545 191.824L63.2412 191.836L64.6 193.304ZM64.6 179.704L63.2412 181.171L63.2545 181.184L63.268 181.196L64.6 179.704ZM27 177.204L25 177.204L25 179.204L27 179.204L27 177.204ZM27 157.604L27 155.604L25 155.604L25 157.604L27 157.604ZM83.1 157.604L85.1 157.604L85.1 155.604L83.1 155.604L83.1 157.604ZM83.1 177.204L83.1 179.204L85.1 179.204L85.1 177.204L83.1 177.204ZM75.1 177.204L75.1 175.204L68.6351 175.204L73.9706 178.855L75.1 177.204ZM81.2 184.204L79.4276 185.13L79.4357 185.146L79.4442 185.162L81.2 184.204ZM81.6 194.304C81.6 200.273 79.626 204.829 75.7814 208.2L78.4187 211.208C83.2407 206.979 85.6 201.268 85.6 194.304L81.6 194.304ZM75.7698 208.21C71.9638 211.6 66.6859 213.404 59.7 213.404L59.7 217.404C67.3807 217.404 73.7029 215.408 78.4302 211.197L75.7698 208.21ZM59.7 213.404L27 213.404L27 217.404L59.7 217.404L59.7 213.404ZM29 215.404L29 195.804L25 195.804L25 215.404L29 215.404ZM27 197.804L57.1 197.804L57.1 193.804L27 193.804L27 197.804ZM57.1 197.804C60.646 197.804 63.6876 196.874 65.9588 194.771L63.2412 191.836C61.9124 193.067 59.954 193.804 57.1 193.804L57.1 197.804ZM65.932 194.796C68.2769 192.702 69.4 189.898 69.4 186.604L65.4 186.604C65.4 188.91 64.6564 190.572 63.268 191.812L65.932 194.796ZM69.4 186.604C69.4 183.209 68.2979 180.324 65.932 178.212L63.268 181.196C64.6354 182.417 65.4 184.133 65.4 186.604L69.4 186.604ZM65.9588 178.236C63.6876 176.133 60.646 175.204 57.1 175.204L57.1 179.204C59.954 179.204 61.9124 179.941 63.2412 181.171L65.9588 178.236ZM57.1 175.204L27 175.204L27 179.204L57.1 179.204L57.1 175.204ZM29 177.204L29 157.604L25 157.604L25 177.204L29 177.204ZM27 159.604L83.1 159.604L83.1 155.604L27 155.604L27 159.604ZM81.1 157.604L81.1 177.204L85.1 177.204L85.1 157.604L81.1 157.604ZM83.1 175.204L75.1 175.204L75.1 179.204L83.1 179.204L83.1 175.204ZM73.9706 178.855C76.2126 180.389 78.0338 182.464 79.4276 185.13L82.9725 183.277C81.2995 180.077 79.0541 177.486 76.2294 175.553L73.9706 178.855ZM79.4442 185.162C80.8631 187.763 81.6 190.792 81.6 194.304L85.6 194.304C85.6 190.216 84.7369 186.512 82.9558 183.246L79.4442 185.162ZM51.1 279.459L49.1 279.459L49.1 281.215L50.8413 281.442L51.1 279.459ZM51.1 242.359L53.1 242.359L53.1 240.224L50.9698 240.363L51.1 242.359ZM44.2 244.859L42.8176 243.413L42.7854 243.444L42.7547 243.476L44.2 244.859ZM46.4 257.659L48.4 257.659L48.4 256.397L47.2615 255.854L46.4 257.659ZM46.4 278.559L45.9626 280.51L48.4 281.056L48.4 278.559L46.4 278.559ZM36 273.459L37.2738 271.917L37.2702 271.914L36 273.459ZM28.9 264.059L27.0804 264.889L28.9 264.059ZM29.8 236.659L28.0452 235.699L28.0391 235.71L29.8 236.659ZM39.8 226.559L38.831 224.809L38.8208 224.815L38.8106 224.82L39.8 226.559ZM70.3 226.559L69.3195 228.302L69.331 228.308L70.3 226.559ZM80.3 236.559L82.061 235.61L82.0547 235.599L80.3 236.559ZM80.4 266.159L82.1662 267.097L80.4 266.159ZM70.6 276.159L69.6195 274.415L69.6077 274.422L70.6 276.159ZM60.6 259.759L58.6 259.759L58.6 261.759L60.6 261.759L60.6 259.759ZM66.2 257.359L64.6949 256.042L64.679 256.06L64.6636 256.078L66.2 257.359ZM66.3 245.459L64.7581 246.732L64.7742 246.752L64.7908 246.771L66.3 245.459ZM60.6 242.459L60.9623 240.492L58.6 240.057L58.6 242.459L60.6 242.459ZM55.7 277.759C54.2539 277.759 52.807 277.664 51.3587 277.475L50.8413 281.442C52.4597 281.653 54.0794 281.759 55.7 281.759L55.7 277.759ZM53.1 279.459L53.1 242.359L49.1 242.359L49.1 279.459L53.1 279.459ZM50.9698 240.363C47.6395 240.58 44.8145 241.503 42.8176 243.413L45.5824 246.304C46.6521 245.281 48.4271 244.537 51.2302 244.354L50.9698 240.363ZM42.7547 243.476C40.8951 245.42 40 247.866 40 250.659L44 250.659C44 248.784 44.5716 247.364 45.6453 246.241L42.7547 243.476ZM40 250.659C40 252.598 40.4384 254.382 41.4067 255.923C42.3754 257.464 43.7923 258.63 45.5385 259.464L47.2615 255.854C46.0744 255.287 45.2913 254.587 44.7933 253.794C44.2949 253.001 44 251.986 44 250.659L40 250.659ZM44.4 257.659L44.4 278.559L48.4 278.559L48.4 257.659L44.4 257.659ZM46.8374 276.607C43.2791 275.809 40.0987 274.25 37.2738 271.917L34.7262 275.001C38.0346 277.734 41.7876 279.574 45.9626 280.51L46.8374 276.607ZM37.2702 271.914C34.5228 269.655 32.3363 266.773 30.7196 263.229L27.0804 264.889C28.9303 268.944 31.4772 272.329 34.7298 275.003L37.2702 271.914ZM30.7196 263.229C29.1167 259.715 28.3 255.801 28.3 251.459L24.3 251.459C24.3 256.316 25.2166 260.803 27.0804 264.889L30.7196 263.229ZM28.3 251.459C28.3 246.214 29.4032 241.614 31.5609 237.607L28.0391 235.71C25.5301 240.37 24.3 245.636 24.3 251.459L28.3 251.459ZM31.5547 237.618C33.7054 233.686 36.7698 230.585 40.7894 228.297L38.8106 224.82C34.1635 227.466 30.5613 231.098 28.0453 235.699L31.5547 237.618ZM40.769 228.308C44.7555 226.1 49.5098 224.959 55.1 224.959L55.1 220.959C48.9569 220.959 43.5112 222.217 38.831 224.809L40.769 228.308ZM55.1 224.959C60.6913 224.959 65.4064 226.101 69.3195 228.302L71.2805 224.815C66.6603 222.217 61.242 220.959 55.1 220.959L55.1 224.959ZM69.331 228.308C73.3394 230.528 76.3973 233.59 78.5453 237.518L82.0547 235.599C79.5361 230.993 75.9273 227.389 71.269 224.809L69.331 228.308ZM78.5391 237.507C80.695 241.511 81.8 246.143 81.8 251.459L85.8 251.459C85.8 245.574 84.5717 240.273 82.061 235.61L78.5391 237.507ZM81.8 251.459C81.8 256.713 80.7259 261.282 78.6338 265.22L82.1662 267.097C84.6074 262.502 85.8 257.271 85.8 251.459L81.8 251.459ZM78.6338 265.22C76.5491 269.144 73.5573 272.2 69.6195 274.415L71.5805 277.902C76.176 275.317 79.7175 271.706 82.1662 267.097L78.6338 265.22ZM69.6077 274.422C65.7616 276.62 61.15 277.759 55.7 277.759L55.7 281.759C61.7167 281.759 67.0385 280.497 71.5923 277.895L69.6077 274.422ZM60.6 261.759C63.4926 261.759 65.9629 260.767 67.7364 258.639L64.6636 256.078C63.7705 257.15 62.5075 257.759 60.6 257.759L60.6 261.759ZM67.7052 258.676C69.4655 256.664 70.3 254.176 70.3 251.359L66.3 251.359C66.3 253.341 65.7345 254.853 64.6949 256.042L67.7052 258.676ZM70.3 251.359C70.3 248.568 69.5146 246.107 67.8092 244.146L64.7908 246.771C65.7521 247.876 66.3 249.349 66.3 251.359L70.3 251.359ZM67.8419 244.185C66.1967 242.193 63.8192 241.018 60.9623 240.492L60.2377 244.426C62.4475 244.833 63.87 245.657 64.7581 246.732L67.8419 244.185ZM58.6 242.459L58.6 259.759L62.6 259.759L62.6 242.459L58.6 242.459ZM83.1 348.18L82.31 350.017L85.1 351.217L85.1 348.18L83.1 348.18ZM0.299999 312.58L-1.7 312.58L-1.7 313.897L-0.489979 314.417L0.299999 312.58ZM0.299999 291.28L1.13653 289.463L-1.7 288.157L-1.7 291.28L0.299999 291.28ZM29.4 304.68L28.5635 306.496L29.3706 306.868L30.1874 306.518L29.4 304.68ZM83.1 281.68L85.1 281.68L85.1 278.647L82.3126 279.841L83.1 281.68ZM83.1 303.48L83.7958 305.355L85.1 304.871L85.1 303.48L83.1 303.48ZM51.3 315.28L50.6042 313.405L45.4638 315.312L50.6251 317.162L51.3 315.28ZM83.1 326.68L85.1 326.68L85.1 325.272L83.7749 324.797L83.1 326.68ZM83.89 346.342L1.08998 310.742L-0.489979 314.417L82.31 350.017L83.89 346.342ZM2.3 312.58L2.3 291.28L-1.7 291.28L-1.7 312.58L2.3 312.58ZM-0.536534 293.096L28.5635 306.496L30.2365 302.863L1.13653 289.463L-0.536534 293.096ZM30.1874 306.518L83.8874 283.518L82.3126 279.841L28.6126 302.841L30.1874 306.518ZM81.1 281.68L81.1 303.48L85.1 303.48L85.1 281.68L81.1 281.68ZM82.4042 301.605L50.6042 313.405L51.9958 317.155L83.7958 305.355L82.4042 301.605ZM50.6251 317.162L82.4251 328.562L83.7749 324.797L51.9749 313.397L50.6251 317.162ZM81.1 326.68L81.1 348.18L85.1 348.18L85.1 326.68L81.1 326.68ZM97.5 406.407L97.5 408.407L99.5 408.407L99.5 406.407L97.5 406.407ZM81.9 406.407L79.9 406.407L79.9 408.407L81.9 408.407L81.9 406.407ZM81.9 387.607L83.9 387.607L83.9 385.607L81.9 385.607L81.9 387.607ZM27 387.607L25 387.607L25 389.607L27 389.607L27 387.607ZM27 368.007L27 366.007L25 366.007L25 368.007L27 368.007ZM81.9 368.007L81.9 370.007L83.9 370.007L83.9 368.007L81.9 368.007ZM81.9 349.407L81.9 347.407L79.9 347.407L79.9 349.407L81.9 349.407ZM97.5 349.407L99.5 349.407L99.5 347.407L97.5 347.407L97.5 349.407ZM97.5 404.407L81.9 404.407L81.9 408.407L97.5 408.407L97.5 404.407ZM83.9 406.407L83.9 387.607L79.9 387.607L79.9 406.407L83.9 406.407ZM81.9 385.607L27 385.607L27 389.607L81.9 389.607L81.9 385.607ZM29 387.607L29 368.007L25 368.007L25 387.607L29 387.607ZM27 370.007L81.9 370.007L81.9 366.007L27 366.007L27 370.007ZM83.9 368.007L83.9 349.407L79.9 349.407L79.9 368.007L83.9 368.007ZM81.9 351.407L97.5 351.407L97.5 347.407L81.9 347.407L81.9 351.407ZM95.5 349.407L95.5 406.407L99.5 406.407L99.5 349.407L95.5 349.407ZM73.2 433.259L73.2 431.259L66.7606 431.259L72.0669 434.907L73.2 433.259ZM83.6 451.359L83.6 453.359L85.6 453.359L85.6 451.359L83.6 451.359ZM62.7 451.359L60.7 451.359L60.7 453.359L62.7 453.359L62.7 451.359ZM60.2 436.359L58.6432 437.614L60.2 436.359ZM27 433.259L25 433.259L25 435.259L27 435.259L27 433.259ZM27 413.659L27 411.659L25 411.659L25 413.659L27 413.659ZM83.1 413.659L85.1 413.659L85.1 411.659L83.1 411.659L83.1 413.659ZM83.1 433.259L83.1 435.259L85.1 435.259L85.1 433.259L83.1 433.259ZM72.0669 434.907C75.0448 436.954 77.3723 439.413 79.0818 442.282L82.5182 440.235C80.4944 436.838 77.7552 433.963 74.3331 431.611L72.0669 434.907ZM79.0818 442.282C80.7666 445.11 81.6 448.124 81.6 451.359L85.6 451.359C85.6 447.393 84.5668 443.674 82.5182 440.235L79.0818 442.282ZM83.6 449.359L62.7 449.359L62.7 453.359L83.6 453.359L83.6 449.359ZM64.7 451.359L64.7 445.859L60.7 445.859L60.7 451.359L64.7 451.359ZM64.7 445.859C64.7 441.394 63.8388 437.685 61.7568 435.103L58.6432 437.614C59.8946 439.166 60.7 441.79 60.7 445.859L64.7 445.859ZM61.7568 435.103C59.5392 432.353 55.8987 431.259 51.5 431.259L51.5 435.259C55.368 435.259 57.5275 436.231 58.6432 437.614L61.7568 435.103ZM51.5 431.259L27 431.259L27 435.259L51.5 435.259L51.5 431.259ZM29 433.259L29 413.659L25 413.659L25 433.259L29 433.259ZM27 415.659L83.1 415.659L83.1 411.659L27 411.659L27 415.659ZM81.1 413.659L81.1 433.259L85.1 433.259L85.1 413.659L81.1 413.659ZM83.1 431.259L73.2 431.259L73.2 435.259L83.1 435.259L83.1 431.259ZM51.1 511.685L49.1 511.685L49.1 513.441L50.8413 513.668L51.1 511.685ZM51.1 474.585L53.1 474.585L53.1 472.45L50.9698 472.589L51.1 474.585ZM44.2 477.085L42.8176 475.64L42.7854 475.671L42.7547 475.703L44.2 477.085ZM46.4 489.885L48.4 489.885L48.4 488.624L47.2615 488.08L46.4 489.885ZM46.4 510.785L45.9626 512.737L48.4 513.283L48.4 510.785L46.4 510.785ZM36 505.685L37.2738 504.143L37.2702 504.14L36 505.685ZM28.9 496.285L27.0804 497.115L28.9 496.285ZM29.8 468.885L28.0452 467.926L28.0391 467.937L29.8 468.885ZM39.8 458.785L38.831 457.036L38.8208 457.041L38.8106 457.047L39.8 458.785ZM70.3 458.785L69.3195 460.528L69.331 460.535L70.3 458.785ZM80.3 468.785L82.061 467.837L82.0548 467.826L80.3 468.785ZM80.4 498.385L82.1662 499.323L80.4 498.385ZM70.6 508.385L69.6195 506.642L69.6077 506.649L70.6 508.385ZM60.6 491.985L58.6 491.985L58.6 493.985L60.6 493.985L60.6 491.985ZM66.2 489.585L64.6949 488.268L64.679 488.286L64.6636 488.305L66.2 489.585ZM66.3 477.685L64.7581 478.959L64.7742 478.978L64.7908 478.998L66.3 477.685ZM60.6 474.685L60.9623 472.718L58.6 472.283L58.6 474.685L60.6 474.685ZM55.7 509.985C54.2539 509.985 52.807 509.891 51.3587 509.702L50.8413 513.668C52.4597 513.879 54.0794 513.985 55.7 513.985L55.7 509.985ZM53.1 511.685L53.1 474.585L49.1 474.585L49.1 511.685L53.1 511.685ZM50.9698 472.589C47.6395 472.807 44.8145 473.73 42.8176 475.64L45.5824 478.53C46.6521 477.507 48.4271 476.764 51.2302 476.581L50.9698 472.589ZM42.7547 475.703C40.8951 477.647 40 480.093 40 482.885L44 482.885C44 481.011 44.5716 479.59 45.6453 478.468L42.7547 475.703ZM40 482.885C40 484.824 40.4384 486.609 41.4067 488.15C42.3754 489.691 43.7923 490.857 45.5385 491.69L47.2615 488.08C46.0744 487.514 45.2913 486.813 44.7933 486.021C44.2949 485.228 44 484.213 44 482.885L40 482.885ZM44.4 489.885L44.4 510.785L48.4 510.785L48.4 489.885L44.4 489.885ZM46.8374 508.834C43.2791 508.036 40.0987 506.477 37.2738 504.143L34.7262 507.227C38.0346 509.96 41.7876 511.801 45.9626 512.737L46.8374 508.834ZM37.2702 504.14C34.5228 501.881 32.3363 498.999 30.7196 495.455L27.0804 497.115C28.9303 501.171 31.4772 504.556 34.7298 507.23L37.2702 504.14ZM30.7196 495.455C29.1168 491.941 28.3 488.028 28.3 483.685L24.3 483.685C24.3 488.542 25.2166 493.029 27.0804 497.115L30.7196 495.455ZM28.3 483.685C28.3 478.441 29.4032 473.841 31.5609 469.833L28.0391 467.937C25.5301 472.596 24.3 477.863 24.3 483.685L28.3 483.685ZM31.5547 469.845C33.7054 465.912 36.7698 462.811 40.7894 460.523L38.8106 457.047C34.1635 459.692 30.5613 463.325 28.0453 467.926L31.5547 469.845ZM40.769 460.535C44.7555 458.327 49.5098 457.185 55.1 457.185L55.1 453.185C48.9569 453.185 43.5112 454.443 38.831 457.036L40.769 460.535ZM55.1 457.185C60.6913 457.185 65.4064 458.327 69.3195 460.528L71.2805 457.042C66.6603 454.443 61.2421 453.185 55.1 453.185L55.1 457.185ZM69.331 460.535C73.3394 462.755 76.3973 465.817 78.5453 469.745L82.0548 467.826C79.5361 463.22 75.9273 459.616 71.269 457.036L69.331 460.535ZM78.5391 469.733C80.695 473.737 81.8 478.37 81.8 483.685L85.8 483.685C85.8 477.8 84.5717 472.5 82.061 467.837L78.5391 469.733ZM81.8 483.685C81.8 488.939 80.7259 493.509 78.6338 497.447L82.1662 499.323C84.6074 494.728 85.8 489.498 85.8 483.685L81.8 483.685ZM78.6338 497.447C76.5491 501.371 73.5573 504.427 69.6195 506.642L71.5805 510.128C76.176 507.543 79.7176 503.933 82.1662 499.323L78.6338 497.447ZM69.6077 506.649C65.7616 508.846 61.15 509.985 55.7 509.985L55.7 513.985C61.7167 513.985 67.0385 512.724 71.5923 510.122L69.6077 506.649ZM60.6 493.985C63.4926 493.985 65.9629 492.994 67.7364 490.866L64.6636 488.305C63.7705 489.376 62.5075 489.985 60.6 489.985L60.6 493.985ZM67.7052 490.902C69.4655 488.89 70.3 486.403 70.3 483.585L66.3 483.585C66.3 485.567 65.7345 487.08 64.6949 488.268L67.7052 490.902ZM70.3 483.585C70.3 480.795 69.5146 478.334 67.8092 476.373L64.7908 478.998C65.7521 480.103 66.3 481.575 66.3 483.585L70.3 483.585ZM67.8419 476.411C66.1967 474.42 63.8192 473.245 60.9623 472.718L60.2377 476.652C62.4475 477.059 63.87 477.884 64.7581 478.959L67.8419 476.411ZM58.6 474.685L58.6 491.985L62.6 491.985L62.6 474.685L58.6 474.685ZM51.1 573.306L49.1 573.306L49.1 575.062L50.8413 575.289L51.1 573.306ZM51.1 536.206L53.1 536.206L53.1 534.072L50.9698 534.211L51.1 536.206ZM44.2 538.706L42.8176 537.261L42.7854 537.292L42.7547 537.324L44.2 538.706ZM46.4 551.506L48.4 551.506L48.4 550.245L47.2615 549.701L46.4 551.506ZM46.4 572.406L45.9626 574.358L48.4 574.904L48.4 572.406L46.4 572.406ZM36 567.306L37.2738 565.764L37.2702 565.761L36 567.306ZM28.9 557.906L27.0804 558.736L28.9 557.906ZM29.8 530.506L28.0452 529.547L28.0391 529.558L29.8 530.506ZM39.8 520.406L38.831 518.657L38.8208 518.662L38.8106 518.668L39.8 520.406ZM70.3 520.406L69.3195 522.149L69.331 522.156L70.3 520.406ZM80.3 530.406L82.061 529.458L82.0548 529.447L80.3 530.406ZM80.4 560.006L82.1662 560.945L80.4 560.006ZM70.6 570.006L69.6195 568.263L69.6077 568.27L70.6 570.006ZM60.6 553.606L58.6 553.606L58.6 555.606L60.6 555.606L60.6 553.606ZM66.2 551.206L64.6949 549.889L64.679 549.907L64.6636 549.926L66.2 551.206ZM66.3 539.306L64.7581 540.58L64.7742 540.6L64.7908 540.619L66.3 539.306ZM60.6 536.306L60.9623 534.339L58.6 533.904L58.6 536.306L60.6 536.306ZM55.7 571.606C54.2539 571.606 52.807 571.512 51.3587 571.323L50.8413 575.289C52.4597 575.501 54.0794 575.606 55.7 575.606L55.7 571.606ZM53.1 573.306L53.1 536.206L49.1 536.206L49.1 573.306L53.1 573.306ZM50.9698 534.211C47.6395 534.428 44.8145 535.351 42.8176 537.261L45.5824 540.152C46.6521 539.128 48.4271 538.385 51.2302 538.202L50.9698 534.211ZM42.7547 537.324C40.8951 539.268 40 541.714 40 544.506L44 544.506C44 542.632 44.5716 541.211 45.6453 540.089L42.7547 537.324ZM40 544.506C40 546.445 40.4384 548.23 41.4067 549.771C42.3754 551.312 43.7923 552.478 45.5386 553.311L47.2615 549.701C46.0744 549.135 45.2913 548.434 44.7933 547.642C44.2949 546.849 44 545.834 44 544.506L40 544.506ZM44.4 551.506L44.4 572.406L48.4 572.406L48.4 551.506L44.4 551.506ZM46.8374 570.455C43.2791 569.657 40.0987 568.098 37.2738 565.764L34.7262 568.848C38.0346 571.581 41.7876 573.422 45.9626 574.358L46.8374 570.455ZM37.2702 565.761C34.5228 563.502 32.3363 560.621 30.7196 557.076L27.0804 558.736C28.9303 562.792 31.4772 566.177 34.7298 568.851L37.2702 565.761ZM30.7196 557.076C29.1168 553.562 28.3 549.649 28.3 545.306L24.3 545.306C24.3 550.163 25.2166 554.65 27.0804 558.736L30.7196 557.076ZM28.3 545.306C28.3 540.062 29.4032 535.462 31.561 531.454L28.0391 529.558C25.5301 534.217 24.3 539.484 24.3 545.306L28.3 545.306ZM31.5547 531.466C33.7054 527.533 36.7698 524.432 40.7894 522.144L38.8106 518.668C34.1635 521.313 30.5613 524.946 28.0453 529.547L31.5547 531.466ZM40.769 522.156C44.7555 519.948 49.5098 518.806 55.1 518.806L55.1 514.806C48.9569 514.806 43.5112 516.065 38.831 518.657L40.769 522.156ZM55.1 518.806C60.6913 518.806 65.4064 519.948 69.3195 522.149L71.2805 518.663C66.6603 516.064 61.2421 514.806 55.1 514.806L55.1 518.806ZM69.331 522.156C73.3394 524.376 76.3973 527.438 78.5453 531.366L82.0548 529.447C79.5361 524.841 75.9273 521.237 71.269 518.657L69.331 522.156ZM78.5391 531.354C80.695 535.358 81.8 539.991 81.8 545.306L85.8 545.306C85.8 539.421 84.5717 534.121 82.061 529.458L78.5391 531.354ZM81.8 545.306C81.8 550.56 80.7259 555.13 78.6338 559.068L82.1662 560.945C84.6074 556.349 85.8 551.119 85.8 545.306L81.8 545.306ZM78.6338 559.068C76.5491 562.992 73.5573 566.048 69.6195 568.263L71.5805 571.749C76.176 569.164 79.7176 565.554 82.1662 560.945L78.6338 559.068ZM69.6077 568.27C65.7616 570.468 61.15 571.606 55.7 571.606L55.7 575.606C61.7167 575.606 67.0385 574.345 71.5923 571.743L69.6077 568.27ZM60.6 555.606C63.4926 555.606 65.9629 554.615 67.7364 552.487L64.6636 549.926C63.7705 550.998 62.5075 551.606 60.6 551.606L60.6 555.606ZM67.7052 552.523C69.4655 550.511 70.3 548.024 70.3 545.206L66.3 545.206C66.3 547.189 65.7345 548.701 64.6949 549.889L67.7052 552.523ZM70.3 545.206C70.3 542.416 69.5146 539.955 67.8092 537.994L64.7908 540.619C65.7521 541.724 66.3 543.197 66.3 545.206L70.3 545.206ZM67.8419 538.032C66.1967 536.041 63.8192 534.866 60.9623 534.339L60.2377 538.273C62.4475 538.68 63.87 539.505 64.7581 540.58L67.8419 538.032ZM58.6 536.306L58.6 553.606L62.6 553.606L62.6 536.306L58.6 536.306Z" fill="black"/>
</svg>
