<svg width="20" height="51" viewBox="0 0 20 51" fill="none" xmlns="http://www.w3.org/2000/svg">
<path fill-rule="evenodd" clip-rule="evenodd" d="M19.6167 2.53959C19.6167 1.47752 18.7556 0.616516 17.6934 0.616516C16.6312 0.616516 15.7701 1.47752 15.7701 2.53959L15.7701 48.6934C15.7701 49.7554 16.6312 50.6165 17.6934 50.6165C18.7556 50.6165 19.6167 49.7554 19.6167 48.6934L19.6167 2.53959ZM2.30694 19.6165C3.36915 19.6165 4.23025 20.4775 4.23025 21.5396L4.23025 48.6934C4.23025 49.7554 3.36915 50.6165 2.30694 50.6165C1.24474 50.6165 0.383638 49.7554 0.383638 48.6934L0.383639 21.5396C0.383639 20.4775 1.24474 19.6165 2.30694 19.6165Z" fill="white"/>
</svg>
